<?xml version="1.0" encoding="UTF-8"?>
<svg width="16px" height="16px" viewBox="0 0 16 16" version="1.1" xmlns="http://www.w3.org/2000/svg" xmlns:xlink="http://www.w3.org/1999/xlink">
    <!-- Generator: Sketch 53.2 (72643) - https://sketchapp.com -->
    <title>Check</title>
    <desc>Created with Sketch.</desc>
    <g id="系统管理" stroke="none" stroke-width="1" fill="none" fill-rule="evenodd">
        <g id="系统设置/用户/添加用户" transform="translate(-738.000000, -486.000000)" fill="#0098FF">
            <g id="分组-25" transform="translate(666.000000, 470.000000)">
                <g id="Check" transform="translate(72.000000, 16.000000)">
                    <path d="M16,-7.10542736e-14 L16,13.5310172 C16,14.8945988 14.8945988,16 13.5310172,16 L-7.46069873e-14,16 L16,-7.10542736e-14 Z M9.7,14.3015385 L9.748,14.3015385 C9.852,14.2935385 9.948,14.2655385 10.036,14.2175385 C10.128,14.1695385 10.206,14.1055385 10.27,14.0255385 L14.05,9.15953846 C14.174,8.99553846 14.224,8.81953846 14.2,8.63153846 C14.176,8.43953846 14.084,8.28153846 13.924,8.15753846 C13.76,8.02953846 13.584,7.97953846 13.396,8.00753846 C13.204,8.03153846 13.044,8.12153846 12.916,8.27753846 L9.628,12.5015385 L8.224,11.1215385 C8.072,10.9855385 7.902,10.9195385 7.714,10.9235385 C7.522,10.9235385 7.352,10.9955385 7.204,11.1395385 C7.068,11.2875385 7,11.4575385 7,11.6495385 C7,11.8415385 7.072,12.0115385 7.216,12.1595385 L9.196,14.0975385 C9.34,14.2335385 9.508,14.3015385 9.7,14.3015385 Z" id="合并形状"></path>
                </g>
            </g>
        </g>
    </g>
</svg>